PathFileType	4	(X/Y/Z)	c:\Git\powerlifing_model_clean\simulations\HC835B\Session1\HC835B_OGW_0004\marker_experimental.trc
DataRate	CameraRate	NumFrames	NumMarkers	Units	OrigDataRate	OrigDataStartFrame	OrigNumFrames
240.000000	240.000000	5	38	mm	240.000000	0	429
Frame#	Time	RPSI			LPSI			RASI			LASI			RTH1			RTH2			RTH3			RTH4			RSK1			RSK2			RSK3			RSK4			RCAL1			RCAL2			RCAL3			RST			RPT			RTN			RFMB			RSMB			RVMB			RFMH			RSMH			RVMH			RPM			LTH1			LTH2			LTH3			LTH4			LSK1			LSK2			LSK3			LSK4			LCAL1			LCAL2			LCAL3			LFMH			LVMH			
		X1	Y1	Z1	X2	Y2	Z2	X3	Y3	Z3	X4	Y4	Z4	X5	Y5	Z5	X6	Y6	Z6	X7	Y7	Z7	X8	Y8	Z8	X9	Y9	Z9	X10	Y10	Z10	X11	Y11	Z11	X12	Y12	Z12	X13	Y13	Z13	X14	Y14	Z14	X15	Y15	Z15	X16	Y16	Z16	X17	Y17	Z17	X18	Y18	Z18	X19	Y19	Z19	X20	Y20	Z20	X21	Y21	Z21	X22	Y22	Z22	X23	Y23	Z23	X24	Y24	Z24	X25	Y25	Z25	X26	Y26	Z26	X27	Y27	Z27	X28	Y28	Z28	X29	Y29	Z29	X30	Y30	Z30	X31	Y31	Z31	X32	Y32	Z32	X33	Y33	Z33	X34	Y34	Z34	X35	Y35	Z35	X36	Y36	Z36	X37	Y37	Z37	X38	Y38	Z38	

1	0	509.2133789062501	1107.300903320313	-2633.5126953125	619.1065673828126	1113.567138671875	-2637.591064453125	465.9529418945314	1067.773681640625	-2423.69140625	707.5069580078126	1062.759155273438	-2436.8515625	379.1008605957032	803.278015136719	-2408.955322265625	388.5364685058595	816.3748779296877	-2349.970947265625	385.8529052734376	738.0375366210939	-2355.792724609375	405.8093872070314	748.3242797851564	-2301.134765625	425.0320739746095	294.5387268066407	-2290.937744140625	413.2305297851564	297.7338256835938	-2229.75537109375	425.896942138672	244.9730377197266	-2258.513671875	426.580291748047	249.8243560791016	-2198.417724609375	491.6105346679689	87.80931091308595	-2256.352783203125	525.5571289062501	59.6323585510254	-2232.69384765625	464.1274719238282	48.12054824829103	-2246.125	525.2129516601564	95.96010589599611	-2173.775390625	428.0271606445314	70.4561233520508	-2197.16845703125	496.007293701172	124.6655349731446	-2127.42431640625	489.4175109863282	116.4800491333008	-2091.800048828125	438.2419433593751	133.8488922119141	-2097.200439453125	412.8596801757814	55.98667907714845	-2149.151611328125	486.8663330078126	100.7699508666992	-2032.471435546875	430.2160034179689	113.3236465454102	-2033.01171875	381.2669372558594	63.03117752075197	-2075.552978515625	429.9056701660157	122.6742095947266	-1977.143310546875	759.4216918945314	801.6912231445315	-2584.897705078125	751.1268310546876	777.2198486328127	-2529.89990234375	747.8911132812501	716.3946533203126	-2584.014892578125	725.1250610351564	695.2814941406251	-2531.28173828125	701.0117797851564	294.4830932617188	-2780.632568359375	707.3889770507814	263.8708496093751	-2736.517578125	696.3286743164064	236.7593688964844	-2777.77001953125	688.4125976562501	208.6189575195313	-2729.12451171875	635.5034179687501	95.13306427001955	-2865.14111328125	664.7776489257814	58.0941848754883	-2869.23291015625	607.8046264648439	55.54141998291017	-2863.192138671875	618.7980957031251	47.77916336059571	-2638.438232421875	720.4674072265626	24.84148788452149	-2685.53076171875	
2	0.004166666666666667	508.6802978515626	1105.7001953125	-2626.492919921875	618.4830932617189	1112.240844726563	-2630.71142578125	465.4399414062501	1065.89599609375	-2416.59375	707.2008056640626	1060.968017578125	-2430.139404296875	379.7362976074219	800.575134277344	-2403.436279296875	389.4184570312501	813.228210449219	-2344.413330078125	386.6885375976564	735.0370483398439	-2350.501953125	406.959930419922	744.9450073242189	-2296.17822265625	425.5921020507814	292.4656066894532	-2278.6328125	413.533172607422	297.2878723144532	-2217.6279296875	426.3080139160157	243.9072570800782	-2245.05615234375	427.3068237304689	249.9099578857422	-2185.378173828125	491.5712280273439	85.9078826904297	-2238.440673828125	525.2368164062501	58.42278289794923	-2213.88818359375	463.7924804687501	46.82573318481446	-2227.15478515625	524.9205322265626	96.58686065673831	-2156.012451171875	427.6082458496095	70.5730438232422	-2179.012451171875	495.6726379394532	126.4354934692383	-2110.49365234375	489.5843505859376	119.2380752563477	-2075.3603515625	437.7933044433595	136.8652954101563	-2080.890380859375	412.2035217285157	57.357967376709	-2130.578857421875	486.1256103515626	105.4221572875977	-2014.976684570313	429.5553283691407	118.2010269165039	-2016.10009765625	380.4532165527344	66.9044647216797	-2057.34521484375	429.0528564453126	129.1151733398438	-1960.502197265625	759.3686523437501	801.2027587890627	-2580.10546875	751.1782836914064	776.3195800781252	-2525.155517578125	747.8715209960939	715.8303833007814	-2579.65771484375	725.4539794921876	694.3410644531251	-2527.078369140625	700.9779052734376	294.9545898437501	-2778.815673828125	707.3898925781251	264.1421813964844	-2735.03173828125	696.2536621093751	237.2168884277344	-2776.3603515625	688.4087524414064	208.7532501220704	-2727.943603515625	635.4526977539064	95.89534759521486	-2864.6826171875	664.7322387695314	58.81850051879884	-2868.96337890625	607.7688598632814	56.37697219848634	-2862.890380859375	618.9105224609376	47.63605499267579	-2638.16748046875	720.4638061523439	24.74350738525391	-2685.4375	
3	0.008333333333333333	508.1389160156251	1104.078369140625	-2619.47705078125	617.8598022460939	1110.846435546875	-2623.839599609375	465.0107727050782	1064.010864257813	-2409.5361328125	706.8619995117189	1059.195190429688	-2423.364013671875	380.3035278320313	797.8906250000002	-2398.077880859375	390.220916748047	810.0996093750002	-2338.89404296875	387.0937500000001	732.1064453125001	-2344.9326171875	408.172088623047	741.4454345703126	-2291.266357421875	425.1774902343751	289.8934326171876	-2266.75146484375	413.8577880859376	296.8958740234376	-2205.748046875	426.6328430175782	242.8339538574219	-2231.873046875	427.4836425781251	250.2304077148438	-2172.37158203125	491.6361694335939	84.35345458984376	-2220.906982421875	525.0316162109376	57.42639541625978	-2195.510498046875	463.5745544433595	45.67763900756837	-2208.507080078125	524.7629394531251	97.28892517089847	-2138.745361328125	427.3474426269532	71.12496185302736	-2161.274169921875	495.5804748535157	128.5367126464844	-2094.14208984375	488.974090576172	121.93310546875	-2058.825927734375	437.5682373046876	139.8684234619141	-2065.034912109375	411.7681274414064	59.33971786499025	-2112.536865234375	485.5679016113282	110.1151123046875	-1998.100708007813	429.0250549316407	123.1483688354492	-1999.69189453125	379.8473815917969	71.03343200683595	-2039.729736328125	428.5074768066407	135.6422882080078	-1944.453002929688	759.1160278320314	800.6519775390627	-2575.1552734375	751.3286743164064	775.3455200195315	-2520.315185546875	747.8713378906251	715.2349853515626	-2575.194091796875	725.8010864257814	693.4606323242189	-2522.558349609375	700.9474487304689	295.4885864257813	-2776.979248046875	707.3790893554689	264.3562927246094	-2733.33935546875	696.1550292968751	237.6071319580079	-2774.8310546875	688.4680175781251	208.9191131591797	-2726.675048828125	635.5146484375001	96.827262878418	-2864.22509765625	664.6533203125001	59.82410049438478	-2868.717529296875	607.7924194335939	57.29390716552736	-2862.648681640625	619.0698852539064	47.58469772338868	-2637.916259765625	720.4940795898439	24.69497680664063	-2685.427734375	
4	0.0125	507.6069641113282	1102.416748046875	-2612.412841796875	617.2739868164064	1109.41259765625	-2616.954345703125	464.6407165527345	1062.027465820313	-2402.499267578125	706.5820312500001	1057.439086914063	-2416.55029296875	380.6265258789063	795.1575317382815	-2392.60546875	390.9832458496095	806.9715576171877	-2333.387451171875	387.3847656250001	729.1506347656251	-2339.4013671875	409.2237854003907	737.9468994140626	-2286.421142578125	425.7929992675782	288.3063964843751	-2255.022216796875	414.2034912109376	296.4910278320313	-2194.093994140625	426.9786682128907	241.8927917480469	-2218.991455078125	425.8084716796876	252.416000366211	-2158.2783203125	491.7397766113282	83.13463592529298	-2203.92822265625	524.9541625976564	56.72218704223634	-2177.734619140625	463.4904174804689	44.90075302124024	-2190.466796875	524.6829833984376	98.16223144531253	-2121.970458984375	427.243377685547	71.71971893310548	-2144.11962890625	495.5513916015626	130.5159606933594	-2078.22314453125	488.9063720703126	125.1522750854492	-2042.78466796875	437.5219726562501	143.0262451171875	-2049.679443359375	411.5189819335939	61.49060440063478	-2095.087890625	485.1804504394532	114.7479476928711	-1981.843139648438	428.8288879394532	128.0316162109375	-1983.959716796875	379.5045471191407	75.3297576904297	-2022.695556640625	428.1978759765626	142.076171875	-1929.078002929688	759.0717163085939	799.9658813476565	-2570.112548828125	751.5270996093751	774.4885864257815	-2515.40673828125	747.9376220703126	714.8417358398439	-2570.585693359375	726.1343383789064	692.4831542968751	-2517.9580078125	700.9579467773439	296.0520324707032	-2775.035400390625	707.3177490234376	264.6312866210938	-2731.6455078125	696.1764526367189	238.2901000976563	-2773.337158203125	688.4403076171876	209.0135955810547	-2725.31201171875	635.5336914062501	97.76440429687503	-2863.733154296875	664.7328491210939	60.80157470703126	-2868.35986328125	607.7355957031251	58.34737777709962	-2862.270751953125	619.2136840820314	47.53330230712891	-2637.67041015625	720.5054321289064	24.62630653381348	-2685.38427734375	
5	0.01666666666666667	507.0393371582032	1100.7041015625	-2605.361328125	616.6869506835939	1107.8857421875	-2610.0439453125	464.175018310547	1060.265991210938	-2395.323974609375	706.2393188476564	1055.600341796875	-2409.631591796875	380.8473510742188	792.4780883789065	-2387.120849609375	391.7319946289064	803.8045654296877	-2327.815673828125	388.6802062988282	725.5390625000001	-2336.032470703125	410.3261718750001	734.4008178710939	-2281.67919921875	426.4778442382814	286.5924377441407	-2243.52392578125	414.5879211425782	296.1024780273438	-2182.683349609375	427.4749755859376	240.991439819336	-2206.412353515625	424.7994079589845	254.0395050048829	-2145.035400390625	492.032928466797	82.06478881835939	-2187.38671875	525.1663818359376	56.08439254760744	-2160.400146484375	463.5835571289064	44.37741851806641	-2173.120849609375	522.5531616210939	97.26885223388675	-2103.248046875	427.4656372070314	72.9270477294922	-2127.53369140625	495.7514953613282	132.6863555908203	-2062.95947265625	488.9525146484376	128.1434020996094	-2027.392456054688	437.7273254394532	145.9517059326172	-2034.803833007813	411.4431152343751	63.5995330810547	-2078.245361328125	485.050018310547	119.3180084228516	-1966.19384765625	428.6686401367189	132.7177886962891	-1968.747192382813	379.2698364257813	79.15791320800783	-2006.35791015625	428.0852661132814	148.3948516845703	-1914.328491210938	758.7786865234376	799.369567871094	-2564.965087890625	751.7150878906251	773.637634277344	-2510.4013671875	747.9160156250001	714.2526855468751	-2565.92529296875	726.5420532226564	691.5836181640626	-2513.2578125	700.9739379882814	296.6363830566407	-2772.99853515625	707.4249877929689	264.9265747070313	-2729.8134765625	696.2992553710939	238.847640991211	-2771.7529296875	688.5081176757814	209.3165893554688	-2723.970458984375	635.5982055664064	98.81855010986331	-2863.194091796875	664.7662963867189	61.89473724365236	-2868.0380859375	607.7860717773439	59.3828582763672	-2861.99853515625	619.3101806640626	47.51665878295899	-2637.410400390625	720.5435791015626	24.53490829467774	-2685.33251953125	
